<svg width="171" height="36" viewBox="0 0 171 36" xmlns="http://www.w3.org/2000/svg"><title>-one</title><g fill="none" fill-rule="evenodd"><rect fill="#1AAAF8" width="171" height="36" rx="2"/><path d="M19.865 11.62h-2.833v2.763h2.833V11.62zm3.477 0h-2.834v2.763h2.834V11.62zm-6.953 3.543h-2.837v2.762h2.834v-2.762h.002zm6.952 0h-2.834v2.762h2.834v-2.762zm-3.477 0h-2.833v2.762h2.833v-2.762zm10.43 0H27.46v2.762h2.835v-2.762zM26.818 8.08h-2.833v2.76h2.833V8.08zm0 3.54h-2.833v2.763h2.833V11.62zm0 3.543h-2.833v2.762h2.833v-2.762zm-9.307 6.75a.78.78 0 0 0-.788.77c0 .423.354.77.79.77a.78.78 0 0 0 .79-.77.78.78 0 0 0-.79-.77zm18.615-5.62c-.134-1.118-.887-2.1-1.783-2.8l-.356-.28-.3.338c-.6.678-.778 1.802-.696 2.666.06.635.265 1.28.666 1.79a5.15 5.15 0 0 1-.96.422 6.41 6.41 0 0 1-1.975.32H12.08l-.04.422c-.133 1.397.063 2.793.656 4.07l.254.51.03.047c1.754 2.9 4.83 4.124 8.186 4.124 6.494 0 11.85-2.826 14.31-8.798 1.644.083 3.326-.39 4.13-1.92l.206-.392-.39-.22c-.952-.534-2.22-.607-3.297-.297zm-18.613 7.85c-.827 0-1.5-.656-1.5-1.46 0-.807.672-1.462 1.5-1.462.825 0 1.498.656 1.498 1.463 0 .804-.672 1.46-1.5 1.46h.002zM57.55 17.907c0 1.645-.468 2.905-1.405 3.78-.937.876-2.29 1.313-4.057 1.313h-2.83v-9.994h3.138c1.63 0 2.898.43 3.8 1.292.903.86 1.354 2.064 1.354 3.61zm-2.2.055c0-2.147-.95-3.22-2.845-3.22h-1.128v6.508h.91c2.04 0 3.062-1.096 3.062-3.288zm7.272-1.265c-.442 0-.788.14-1.04.42-.25.28-.393.68-.43 1.194h2.926c-.01-.514-.143-.912-.403-1.192-.26-.28-.61-.42-1.053-.42zm.294 6.44c-1.23 0-2.192-.34-2.885-1.02-.69-.678-1.038-1.64-1.038-2.884 0-1.28.32-2.27.96-2.97.64-.7 1.526-1.05 2.656-1.05 1.08 0 1.92.308 2.523.924.602.615.903 1.465.903 2.55v1.01h-4.93c.024.594.2 1.056.528 1.39.33.332.79.498 1.382.498.46 0 .895-.048 1.305-.144.41-.094.84-.247 1.286-.457v1.614a4.896 4.896 0 0 1-1.17.406c-.414.09-.92.134-1.517.134zm9.01 0c-.898 0-1.602-.326-2.113-.978h-.11c.074.637.11 1.006.11 1.107v3.096H67.73V15.357h1.694l.294.992h.095c.488-.758 1.21-1.136 2.167-1.136.903 0 1.61.348 2.12 1.046.51.697.765 1.665.765 2.905 0 .816-.12 1.524-.36 2.126-.238.603-.58 1.06-1.02 1.375-.443.314-.962.472-1.56.472zm-.615-6.255c-.514 0-.89.158-1.127.475-.237.317-.36.84-.37 1.57v.224c0 .822.122 1.41.366 1.765.243.356.63.533 1.158.533.934 0 1.4-.77 1.4-2.31 0-.752-.114-1.316-.344-1.692-.23-.376-.59-.564-1.083-.564zM78.674 23h-2.085V12.363h2.085V23zm3.848-3.835c0 .757.126 1.328.374 1.716.248.388.653.582 1.213.582.556 0 .956-.193 1.2-.578.244-.385.366-.958.366-1.72 0-.755-.123-1.323-.37-1.7-.245-.38-.65-.568-1.21-.568-.555 0-.956.187-1.202.563-.245.375-.37.944-.37 1.705zm5.286 0c0 1.244-.328 2.217-.985 2.92-.655.7-1.57 1.052-2.74 1.052-.734 0-1.38-.16-1.94-.482-.562-.322-.993-.783-1.293-1.384-.3-.6-.45-1.303-.45-2.105 0-1.25.324-2.22.976-2.912.652-.693 1.568-1.04 2.748-1.04.735 0 1.382.16 1.942.48.56.318.992.776 1.292 1.373.3.597.452 1.297.452 2.1zm.348-3.808h2.284l1.442 4.3c.123.374.207.816.253 1.326h.04c.05-.47.15-.91.295-1.326l1.415-4.3h2.235l-3.233 8.62c-.296.798-.72 1.395-1.268 1.792-.55.395-1.19.593-1.925.593-.36 0-.713-.038-1.06-.116v-1.654c.25.06.525.09.82.09.37 0 .693-.114.968-.34.276-.225.49-.566.646-1.022l.123-.375-3.036-7.588zm15.914 6.12c.365 0 .802-.08 1.313-.24v1.55c-.52.234-1.157.35-1.913.35-.834 0-1.44-.21-1.822-.633-.38-.42-.57-1.053-.57-1.897v-3.684h-1v-.882l1.15-.696.6-1.614h1.334v1.627h2.14v1.566h-2.14v3.684c0 .297.082.515.25.657.165.14.385.212.658.212zm4.52-2.312c0 .757.123 1.328.37 1.716.25.388.654.582 1.215.582.556 0 .956-.193 1.2-.578.243-.385.365-.958.365-1.72 0-.755-.123-1.323-.37-1.7-.245-.38-.648-.568-1.21-.568-.555 0-.956.187-1.202.563-.246.375-.37.944-.37 1.705zm5.283 0c0 1.244-.327 2.217-.983 2.92-.657.7-1.57 1.052-2.74 1.052-.735 0-1.382-.16-1.943-.482-.56-.322-.99-.783-1.292-1.384-.3-.6-.45-1.303-.45-2.105 0-1.25.325-2.22.976-2.912.652-.693 1.568-1.04 2.75-1.04.732 0 1.38.16 1.94.48.56.318.99.776 1.292 1.373.3.597.45 1.297.45 2.1zm9.77-4.54c-.798 0-1.415.3-1.853.9-.437.6-.656 1.434-.656 2.505 0 2.23.837 3.343 2.51 3.343.7 0 1.55-.175 2.55-.526v1.777c-.82.342-1.737.513-2.75.513-1.452 0-2.564-.44-3.335-1.323-.77-.882-1.155-2.148-1.155-3.797 0-1.04.19-1.95.568-2.73.378-.783.92-1.382 1.63-1.8.71-.416 1.54-.625 2.492-.625.97 0 1.946.235 2.925.704l-.683 1.723c-.374-.18-.75-.334-1.128-.466a3.365 3.365 0 0 0-1.114-.198zM130.236 23h-2.085V12.363h2.086V23zm3.85-3.835c0 .757.123 1.328.372 1.716.248.388.652.582 1.213.582.557 0 .957-.193 1.2-.578.244-.385.366-.958.366-1.72 0-.755-.123-1.323-.37-1.7-.245-.38-.648-.568-1.21-.568-.555 0-.956.187-1.202.563-.246.375-.37.944-.37 1.705zm5.283 0c0 1.244-.33 2.217-.985 2.92-.656.7-1.57 1.052-2.74 1.052-.735 0-1.382-.16-1.943-.482-.56-.322-.99-.783-1.292-1.384-.3-.6-.45-1.303-.45-2.105 0-1.25.325-2.22.977-2.912.65-.693 1.567-1.04 2.748-1.04.733 0 1.38.16 1.94.48.562.318.992.776 1.293 1.373.3.597.45 1.297.45 2.1zM146.505 23l-.28-.978h-.11a2.2 2.2 0 0 1-.95.824c-.41.194-.877.29-1.4.29-.9 0-1.576-.24-2.032-.72-.455-.48-.683-1.173-.683-2.075v-4.983h2.086v4.464c0 .553.098.966.294 1.242.196.276.508.414.936.414.584 0 1.005-.195 1.265-.585.26-.39.39-1.035.39-1.937v-3.596h2.085V23h-1.6zm6.207.137c-.898 0-1.603-.35-2.116-1.046-.513-.696-.77-1.663-.77-2.898 0-1.253.262-2.23.784-2.93.523-.698 1.242-1.048 2.158-1.048.96 0 1.695.374 2.2 1.12h.07a8.524 8.524 0 0 1-.158-1.523v-2.447h2.092V23h-1.6l-.403-.99h-.09c-.474.75-1.196 1.127-2.167 1.127zm.73-1.66c.535 0 .925-.156 1.174-.466.248-.31.384-.836.406-1.578v-.226c0-.82-.126-1.408-.38-1.764-.252-.355-.663-.533-1.233-.533-.465 0-.826.196-1.083.59-.258.395-.387.968-.387 1.72s.13 1.316.39 1.692c.26.376.63.564 1.114.564z" fill="#FFF"/></g></svg>